<svg xmlns="http://www.w3.org/2000/svg" xml:space="preserve" width="1000px" height="199.995px" x="0px" y="0px" viewBox="0 0 1000 199.995"><path d="M499.997 199.996c.699 0 1.862-.236 2.788-.695 56.2-28.008 82.445-53.703 115.421-106.945 12.312-20.367 19.278-30.779 49.232-35.185 46.909-6.713 258.709-21.523 300.509-27.311 17.887-2.543 22.759-5.324 31.117-14.124 1.398-1.393 1.398-2.544-1.163-2.318-5.33.47-216.67 9.493-343.463 14.125-31.124 1.618-40.408.93-66.424-7.638C549.464 8.1 514.631 0 499.997 0c-14.63 0-49.467 8.1-88.017 19.905-26.005 8.567-35.296 9.256-66.413 7.638C218.768 22.911 7.438 13.887 2.1 13.417c-2.561-.226-2.561.926-1.169 2.318 8.365 8.8 13.241 11.581 31.121 14.124C73.858 35.647 285.65 50.458 332.56 57.17c29.954 4.405 36.925 14.817 49.233 35.185 32.975 53.242 59.224 78.938 115.417 106.945.936.459 2.095.696 2.787.696m-67.812-23.608c2.562.459 2.562-.697 1.162-1.852-32.975-26.154-44.121-45.371-69.434-84.725-7.663-12.037-16.958-17.599-37.388-20.142C315.379 68.282 76.409 46.059 29.5 41.897c-2.558-.236-2.558.692-1.163 2.081 8.596 8.567 18.109 16.669 25.31 21.993 24.623 18.742 42.966 23.378 72.921 24.536 25.315.93 179.753 8.331 197.862 9.723 13.004.926 16.954 3.008 20.438 7.172 1.625 1.852 1.862 3.48-.463 3.48-15.329 0-110.315-.932-188.575-2.783-.699 0-.925.459-.226.695 55.967 18.514 100.784 30.094 146.304 29.857 22.992-.229 45.747-.459 54.805-.459 9.758 0 13.697.918 17.417 5.555 1.392 1.85 1.162 3.006-2.088 3.242-13.704 1.156-33.208 2.547-56.2 3.932-2.088.23-2.088.689-.236 1.156 52.253 12.501 79.89 18.284 116.579 24.311m67.812 9.02c-.463 0-1.162 0-2.314-.689-45.757-27.316-92.436-69.443-101.957-118.518-3.25-18.517 3.72-21.986 15.329-26.158 20.904-7.639 68.975-22.456 88.942-22.456 19.979 0 68.043 14.817 88.95 22.456 11.608 4.172 18.582 7.642 15.325 26.158-9.521 49.074-56.207 91.201-101.95 118.518-1.162.689-1.855.689-2.325.689m67.814-9.02c36.698-6.027 64.329-11.811 116.583-24.311 1.857-.467 1.857-.926-.237-1.156-22.981-1.385-42.496-2.775-56.192-3.932-3.258-.236-3.494-1.393-2.088-3.242 3.709-4.637 7.655-5.555 17.413-5.555 9.062 0 31.813.23 54.801.459 45.523.236 90.345-11.344 146.308-29.857.696-.236.467-.695-.236-.695-78.256 1.852-173.242 2.783-188.567 2.783-2.325 0-2.088-1.629-.46-3.48 3.48-4.164 7.427-6.246 20.435-7.172 18.116-1.392 172.546-8.793 197.858-9.723 29.962-1.158 48.308-5.794 72.917-24.536 7.204-5.324 16.725-13.426 25.319-21.993 1.393-1.389 1.393-2.317-1.162-2.081-46.91 4.162-285.887 26.385-297.023 27.773-20.441 2.543-29.732 8.104-37.388 20.142-25.32 39.354-36.463 58.57-69.445 84.725-1.391 1.154-1.391 2.31 1.164 1.851"/><path d="m433.127 73.945 2.571 1.078c.741.313 1.048.689 1.048 1.573v5.881c-1.104.57-2.579 1.075-4.231 1.013-5.032-.191-8.71-4.235-8.71-10.112 0-6.065 3.306-10.492 9.016-10.492 1.41 0 4.538.32 7.788 2.972l1.163-4.297c-3.863-1.64-6.129-2.016-9.072-2.145-8.16-.194-14.967 4.36-14.967 14.024 0 8.658 6.072 13.582 14.041 13.582 5.895 0 9.447-1.952 10.311-2.648V72.427h-8.345l-.613 1.518zm58.177 4.05-14.163-17.89h-5.585l-.672 1.583 1.162.571c.863.441 1.048.884 1.048 1.701v22.501h4.169V69.4l13.554 17.062h4.663V60.105h-4.176v17.89zm29.717-14.538-.919-3.352h-18.773l-.612 1.583 1.169.571c.797.376.978.884.978 1.768v22.435h18.158v-3.414h-12.329v-8.595h10.673v-3.285h-10.673v-7.711h12.328zm27.436-1.769 1.155.571c.863.441 1.044.884 1.044 1.768v22.435h5.832V60.105h-7.363l-.668 1.583zm-10.885 9.413c-3.251-1.701-6.688-2.647-6.688-5.62 0-1.454 1.413-2.658 4.169-2.658 2.825 0 5.525 1.017 7.851 2.021l.737-3.918c-2.199-.755-5.031-1.382-8.156-1.382-6.807 0-10.328 3.027-10.328 7.196 0 4.048 2.728 6.257 6.764 8.153 3.564 1.646 6.543 2.715 6.543 5.311 0 1.959-1.531 3.219-4.538 3.219-2.825 0-5.832-1.009-8.163-2.021l-.425 4.552c1.1.316 5.456 1.068 8.769 1.068 5.457 0 10.363-2.648 10.363-7.454-.001-4.61-3.46-6.633-6.898-8.467m-70.673-7.644-.919-3.352h-18.77l-.605 1.583 1.162.571c.797.376.981.884.981 1.768v22.435h18.151v-3.414H454.57v-8.595h10.676v-3.285H454.57v-7.711h12.329zm108.478 7.644c-3.25-1.701-6.682-2.647-6.682-5.62 0-1.454 1.406-2.658 4.162-2.658 2.826 0 5.526 1.017 7.857 2.021l.731-3.918c-2.206-.755-5.025-1.382-8.157-1.382-6.807 0-10.551 3.027-10.551 7.196 0 4.048 2.951 6.257 6.994 8.153 3.557 1.646 6.528 2.715 6.528 5.311 0 1.959-1.53 3.219-4.53 3.219-2.826 0-5.832-1.009-8.164-2.021l-.425 4.552c1.101.316 5.457 1.068 8.77 1.068 5.456 0 10.356-2.648 10.356-7.454.002-4.61-3.451-6.633-6.889-8.467"/></svg>